# xmcd CD database file
#
# Track frame offsets:
#	150
#	14305
#	28595
#	41350
#	54675
#	68495
#	82022
#	93842
#	106340
#	116970
#	132502
#	145857
#	158372
#	170915
#	184747
#	196480
#	209420
#	223702
#	236700
#	247877
#
# Disc length: 3481 seconds
#
# Revision: 5
# Processed by: cddbd v1.5.2PL0 Copyright (c) Steve Scherf et al.
# Submitted via: CDex 1.79
#
DISCID=1c0d9714
DTITLE=Don Williams - Anthology CD 1
DYEAR=2000
DGENRE=Country
TTITLE0=Come Early Morning
TTITLE1=Amanda
TTITLE2=Atta Way To Go
TTITLE3=The Shelter Of Your Eyes
TTITLE4=We Should Be Together
TTITLE5=I Wouldn't Want To Live If You Didn't Want Me
TTITLE6=The Ties That Bind
TTITLE7=You're My Best Friend
TTITLE8=(Turn Out The Lights And) Love Me Tonight
TTITLE9=Till The Rivers All Run Dry
TTITLE10=Say It Again
TTITLE11=She Never Knew Me
TTITLE12=Some Broken Hearts Never Mend
TTITLE13=I'm Just A Country Boy
TTITLE14=I've Got A Winner In You
TTITLE15=Rake and Ramblin Man
TTITLE16=Tulsa Time
TTITLE17=Lay Down Beside Me
TTITLE18=It Must Be Love
TTITLE19=Love Me Over Again
EXTD=YEAR: 2000
EXTT0=
EXTT1=
EXTT2=
EXTT3=
EXTT4=
EXTT5=
EXTT6=
EXTT7=
EXTT8=
EXTT9=
EXTT10=
EXTT11=
EXTT12=
EXTT13=
EXTT14=
EXTT15=
EXTT16=
EXTT17=
EXTT18=
EXTT19=
PLAYORDER=
